<?xml version="1.0" encoding="utf-8"?>
<!-- Generator: Adobe Illustrator 22.1.0, SVG Export Plug-In . SVG Version: 6.00 Build 0)  -->
<svg version="1.1" id="Layer_1" xmlns="http://www.w3.org/2000/svg" xmlns:xlink="http://www.w3.org/1999/xlink" x="0px" y="0px"
	 viewBox="0 0 44 23.1" style="enable-background:new 0 0 44 23.1;" xml:space="preserve">
<style type="text/css">
	.st0{fill:#FFFFFF;}
</style>
<title>arrow</title>
<path class="st0" d="M22,23.1c-0.3,0-0.6-0.1-0.8-0.3L0.3,1.8C0,1.5-0.1,1.1,0.1,0.7C0.3,0.3,0.6,0,1.1,0h18.7c0.6,0.1,1,0.6,1,1.2
	c0,0.5-0.5,0.9-1,1h-16L22,20.5L40.3,2.2h-16c-0.6,0.1-1.1-0.4-1.2-1s0.4-1.1,1-1.2c0.1,0,0.1,0,0.2,0h18.6c0.4,0,0.8,0.3,1,0.7
	c0.2,0.4,0.1,0.9-0.2,1.2L22.8,22.8C22.6,23,22.3,23.1,22,23.1z"/>
</svg>
